Coordinates
version=1
nRows=26
nColumns=24
inDegrees=yes

Units are S.I. units (second, meters, Newtons, ...)
Angles are in degrees.

endheader
time	pelvis_tilt	pelvis_list	pelvis_rotation	pelvis_tx	pelvis_ty	pelvis_tz	hip_flexion_r	hip_adduction_r	hip_rotation_r	knee_angle_r	ankle_angle_r	subtalar_angle_r	mtp_angle_r	hip_flexion_l	hip_adduction_l	hip_rotation_l	knee_angle_l	ankle_angle_l	subtalar_angle_l	mtp_angle_l	lumbar_extension	lumbar_bending	lumbar_rotation
      1.06000000	     13.91374099	      0.01022187	     -2.74247503	     -0.63909790	      0.93828110	     -0.02310328	    -30.64078639	      2.52819032	    -10.87598269	     -9.78780428	     25.80163010	     -0.65591134	     18.22874217	     -0.59401017	      3.63805479	    -15.48778795	      7.58072703	      4.89941609	     -4.56037141	     37.78952773	    -21.01960265	     -1.43976735	      4.27895474
      1.06500000	     13.99043507	      0.23105951	     -3.01420103	     -0.63279498	      0.93783949	     -0.02283831	    -30.91768186	      2.10430603	    -10.67098559	    -10.20021638	     25.78135343	     -0.58768700	     18.37104124	     -0.56745606	      3.84408792	    -15.41888605	      6.96760634	      4.44570611	     -5.13902062	     37.75574489	    -21.04934245	     -1.82483344	      4.43564884
      1.07000000	     14.05927283	      0.47315058	     -3.21243175	     -0.62649429	      0.93743202	     -0.02273388	    -31.15928458	      1.68287453	    -10.56108427	    -10.66415304	     25.65744426	     -0.47691738	     18.85039389	     -0.53951327	      4.06576893	    -14.99593773	      6.31689432	      3.89185415	     -6.28428026	     37.83057505	    -21.07328871	     -2.20499750	      4.48386785
      1.07500000	     14.08761314	      0.74547332	     -3.36488208	     -0.62020095	      0.93704118	     -0.02267425	    -31.34026975	      1.25925041	    -10.47550964	    -11.14871130	     25.53039699	     -0.46196578	     19.71603679	     -0.42118375	      4.30548517	    -14.55767324	      5.53749065	      3.25251139	     -7.41322358	     38.12034095	    -21.05257130	     -2.60806992	      4.52678214
      1.08000000	     14.09213850	      1.01964354	     -3.55067934	     -0.61390459	      0.93673508	     -0.02257698	    -31.43902714	      0.81241555	    -10.28531111	    -11.72322606	     25.17264371	     -0.61444889	     21.88101555	     -0.25975692	      4.54563386	    -14.29001000	      4.69076382	      2.57506178	     -8.35614015	     39.19968486	    -21.00754085	     -3.02057286	      4.54368911
      1.08500000	     14.14688371	      1.32746589	     -3.71821983	     -0.60760172	      0.93654642	     -0.02257022	    -31.54998203	      0.32249677	    -10.19159277	    -12.39175006	     25.02079096	     -0.53579335	     22.27970079	     -0.15822930	      4.83102235	    -13.90384334	      3.81498630	      1.95033281	     -9.40573563	     39.18951660	    -21.01571963	     -3.46360221	      4.58658418
      1.09000000	     14.11739537	      1.62656444	     -3.84464623	     -0.60133361	      0.93632987	     -0.02265340	    -31.50849970	     -0.14325343	    -10.05742170	    -13.17234118	     24.75606361	     -0.52181522	     23.07188173	      0.05265360	      5.10176432	    -13.42377735	      2.88504807	      1.35930573	    -10.55967939	     39.24945796	    -20.94026732	     -3.87556969	      4.54196708
      1.09500000	     14.07739217	      1.93755534	     -3.93359107	     -0.59507816	      0.93617143	     -0.02281637	    -31.40956497	     -0.60817157	     -9.95382705	    -14.03205667	     24.42769888	     -0.55991748	     24.27086772	      0.28622705	      5.38839216	    -12.91621595	      1.91392092	      0.78188377	    -11.68585907	     39.36462900	    -20.85686946	     -4.28757955	      4.49090800
      1.10000000	     14.03298958	      2.25690498	     -3.96098668	     -0.58882415	      0.93608571	     -0.02305942	    -31.27468763	     -1.05001060	     -9.89313739	    -14.94223044	     23.96602366	     -0.73080583	     26.06487046	      0.53409967	      5.68695504	    -12.38849282	      0.90836340	      0.22876767	    -12.71607823	     39.52736311	    -20.77459752	     -4.69298678	      4.39566005
      1.10500000	     13.95059474	      2.53397057	     -4.02262800	     -0.58263432	      0.93601068	     -0.02332915	    -31.00725506	     -1.48755710	     -9.72035279	    -16.01959450	     23.54611335	     -0.74928722	     27.37502581	      0.84851547	      5.94492327	    -11.95589696	     -0.17466964	     -0.05199346	    -13.65291953	     39.53496703	    -20.66081910	     -5.05143681	      4.35266115
      1.11000000	     13.94603329	      2.84698333	     -4.10552726	     -0.57633792	      0.93612534	     -0.02358884	    -30.78872367	     -1.97782372	     -9.57950327	    -17.14001917	     22.86874555	     -0.97846290	     29.95086068	      0.99934523	      6.26730544	    -11.56505317	     -1.11590629	     -0.41059933	    -14.51965626	     39.46329561	    -20.61592891	     -5.46024588	      4.32841683
      1.11500000	     13.77719378	      3.12160625	     -4.04364066	     -0.57020824	      0.93606123	     -0.02408311	    -30.29635948	     -2.36587675	     -9.48692828	    -18.46393495	     22.32976331	     -1.09988041	     31.12722920	      1.41232915	      6.53173235	    -11.06566782	     -2.23074803	     -0.56104066	    -15.28880638	     39.26906953	    -20.42707021	     -5.76800019	      4.14637886
      1.12000000	     13.69621387	      3.38006869	     -4.07306960	     -0.56403147	      0.93616318	     -0.02451441	    -29.83050657	     -2.80318486	     -9.31453076	    -19.87881086	     21.62043610	     -1.27126442	     33.59702743	      1.64197078	      6.81061387	    -10.64197607	     -3.19230293	     -0.61879445	    -16.06356924	     38.80102111	    -20.32194392	     -6.08641433	      4.11065359
      1.12500000	     13.47855218	      3.60347801	     -4.02658346	     -0.55792209	      0.93612139	     -0.02506517	    -29.12668371	     -3.17986549	     -9.16571998	    -21.47690826	     20.99145349	     -1.25893196	     34.34057245	      2.07328372	      7.03575663	    -10.29217491	     -4.27898019	     -0.42324772	    -16.53431601	     38.61828890	    -20.08290693	     -6.33317849	      4.00240807
      1.13000000	     13.37583222	      3.86282632	     -3.98147389	     -0.55178334	      0.93627829	     -0.02567210	    -28.50925640	     -3.60299268	     -9.05189317	    -23.09701939	     20.00412136	     -1.59515099	     37.64790694	      2.28236691	      7.33958710	     -9.86145795	     -5.17475093	     -0.35149942	    -17.16053470	     37.67526891	    -19.96852966	     -6.62008041	      3.88107151
      1.13500000	     13.16654583	      4.06883825	     -3.93141870	     -0.54572566	      0.93631338	     -0.02630697	    -27.66937728	     -3.98262279	     -8.87744134	    -24.90451253	     19.06847959	     -1.79832118	     39.73770054	      2.62272504	      7.57421410	     -9.53681705	     -6.12108747	      0.00414598	    -17.47909858	     36.85255938	    -19.74646570	     -6.83827382	      3.79587654
      1.14000000	     12.88185741	      4.25456608	     -3.88541651	     -0.53971061	      0.93626722	     -0.02698170	    -26.65347716	     -4.36107862	     -8.67831094	    -26.87510565	     18.19034715	     -1.77882993	     40.41725097	      3.02694737	      7.78790054	     -9.27552949	     -7.03625896	      0.44146974	    -17.74911290	     36.62846105	    -19.44422573	     -7.02638108	      3.72266311
      1.14500000	     12.67984532	      4.46112056	     -3.82593299	     -0.53371796	      0.93635727	     -0.02769275	    -25.68956354	     -4.75775037	     -8.51658155	    -28.84842541	     16.91655485	     -2.18004688	     43.82016531	      3.27648720	      8.04682070	     -8.97575163	     -7.83028389	      0.88701822	    -17.96231877	     35.20953764	    -19.23869411	     -7.23549237	      3.63220627
      1.15000000	     12.33756197	      4.62779517	     -3.72865666	     -0.52783606	      0.93624500	     -0.02847099	    -24.48226936	     -5.10371350	     -8.32644202	    -30.98699613	     15.80773861	     -2.31450403	     44.66087712	      3.70745672	      8.24654880	     -8.74924962	     -8.68453475	      1.44827977	    -18.03844269	     34.78150203	    -18.89429068	     -7.37999629	      3.52093541
      1.15500000	     12.08447762	      4.80918900	     -3.74587569	     -0.52195561	      0.93626669	     -0.02911295	    -23.30898069	     -5.51643426	     -8.03425946	    -33.14504806	     14.46212264	     -2.63976533	     47.42346720	      3.96120427	      8.47641234	     -8.65033689	     -9.38287357	      2.10553147	    -18.05414241	     33.16550216	    -18.63244449	     -7.57424521	      3.52037399
      1.16000000	     11.70085059	      4.95970163	     -3.71368626	     -0.51615486	      0.93611633	     -0.02983051	    -21.92720948	     -5.88002964	     -7.75511472	    -35.40766332	     13.18140081	     -2.71025126	     47.95876902	      4.34608467	      8.66010094	     -8.54599223	    -10.05350025	      2.69054246	    -18.00607660	     32.80047864	    -18.23781930	     -7.71188253	      3.49999290
      1.16500000	     11.39928034	      5.13014675	     -3.72285899	     -0.51035809	      0.93606861	     -0.03048613	    -20.61305670	     -6.26799250	     -7.43671046	    -37.61949442	     11.70530032	     -3.09124901	     50.30911902	      4.59239740	      8.87580157	     -8.49370928	    -10.64160828	      3.48413714	    -17.81087941	     30.76252296	    -17.92871752	     -7.88372512	      3.49343104
      1.17000000	     11.03311845	      5.28754739	     -3.76848103	     -0.50462085	      0.93593182	     -0.03106807	    -19.16816775	     -6.64533646	     -7.04956699	    -39.88897512	     10.35611289	     -3.20983021	     50.48205058	      4.88691836	      9.06235842	     -8.55727554	    -11.16417717	      4.09915579	    -17.72746436	     30.53482418	    -17.54456944	     -8.04966560	      3.52467861
      1.17500000	     10.66198274	      5.44484935	     -3.80341773	     -0.49897586	      0.93576689	     -0.03164340	    -17.68987918	     -7.00099340	     -6.66675671	    -42.14256444	      9.00443386	     -3.48034407	     50.75146765	      5.17575990	      9.24784750	     -8.59335447	    -11.66142205	      4.75299255	    -17.63396685	     30.15068382	    -17.16399465	     -8.21278068	      3.58043782
      1.18000000	     10.32467361	      5.58047855	     -3.75206557	     -0.49330029	      0.93569505	     -0.03229379	    -16.29770871	     -7.29654300	     -6.38365032	    -44.24430761	      7.50574611	     -3.85805241	     52.04428493	      5.40778726	      9.41030558	     -8.60682181	    -12.17384990	      5.72870157	    -17.04599111	     26.87136420	    -16.83044860	     -8.33177647	      3.50439752
      1.18500000	      9.98879365	      5.71413351	     -3.77164459	     -0.48764746	      0.93562341	     -0.03282224	    -14.87377939	     -7.59521236	     -6.01947607	    -46.33339916	      6.23257750	     -4.08606991	     51.82917443	      5.58619619	      9.56322408	     -8.70679484	    -12.54680204	      6.39051402	    -16.75055249	     26.63556980	    -16.48702874	     -8.46628467	      3.52585138
